<svg xmlns="http://www.w3.org/2000/svg" viewBox="0 0 800 800" width="800" height="800">
  <defs>
    <linearGradient id="cloudGradient" x1="0%" y1="0%" x2="100%" y2="100%">
      <stop offset="0%" style="stop-color:#6ec1e4;stop-opacity:1" />
      <stop offset="100%" style="stop-color:#3498db;stop-opacity:1" />
    </linearGradient>
    <linearGradient id="boxGradient" x1="0%" y1="0%" x2="100%" y2="0%">
      <stop offset="0%" style="stop-color:#ffffff;stop-opacity:1" />
      <stop offset="100%" style="stop-color:#d6eaff;stop-opacity:1" />
    </linearGradient>
  </defs>
  
  <!-- Cloud Shape -->
  <path d="M480 280 C400 200, 280 200, 240 280 C120 280, 120 440, 240 440 H560 C680 440, 680 320, 560 320 C600 200, 520 200, 480 280 Z" fill="url(#cloudGradient)" />
  
  <!-- Inventory Boxes -->
  <rect x="300" y="460" width="80" height="80" fill="url(#boxGradient)" rx="12" ry="12" stroke="#3498db" stroke-width="8" />
  <rect x="420" y="460" width="80" height="80" fill="url(#boxGradient)" rx="12" ry="12" stroke="#3498db" stroke-width="8" />
  <rect x="360" y="560" width="80" height="80" fill="url(#boxGradient)" rx="12" ry="12" stroke="#3498db" stroke-width="8" />

  <!-- Highlights -->
  <circle cx="220" cy="320" r="20" fill="#ffffff" opacity="0.8" />
  <circle cx="560" cy="340" r="16" fill="#ffffff" opacity="0.6" />
</svg>
